<svg id="Layer_1" data-name="Layer 1" xmlns="http://www.w3.org/2000/svg" viewBox="0 0 732.31 82.71"><defs><style>.cls-1{fill:#7159c1;}</style></defs><title>geekstore_logo</title><path class="cls-1" d="M83.57,121.28A21.26,21.26,0,0,1,74,128.13a39.09,39.09,0,0,1-14,2.33,27.44,27.44,0,0,1-14.24-3.65,24.31,24.31,0,0,1-9.56-10.43,36.44,36.44,0,0,1-3.49-15.84v-5q0-14.5,6.94-22.66T59,64.72q10.68,0,17,5.3t7.56,15.22H72.63q-1.84-11.55-13.4-11.56-7.47,0-11.36,5.38t-4,15.79v4.91q0,10.36,4.37,16.1t12.15,5.72q8.54,0,12.13-3.86V105.19H59.32V96.76H83.57Z" transform="translate(-32.69 -57.51)"/><path class="cls-1" d="M115.7,130.46q-10.15,0-16.46-6.39t-6.3-17v-1.32A28.51,28.51,0,0,1,95.68,93a20.86,20.86,0,0,1,7.71-8.72,20.41,20.41,0,0,1,11.08-3.12q9.7,0,15,6.19t5.29,17.54v4.3H103.7a14.28,14.28,0,0,0,3.93,9.32,11.84,11.84,0,0,0,8.68,3.43,14.46,14.46,0,0,0,12-5.94l5.75,5.5a19.2,19.2,0,0,1-7.62,6.61A23.85,23.85,0,0,1,115.7,130.46Zm-1.28-40.74a9,9,0,0,0-7.09,3.08,16,16,0,0,0-3.45,8.57h20.34v-.79q-.34-5.37-2.85-8.11A8.94,8.94,0,0,0,114.42,89.72Z" transform="translate(-32.69 -57.51)"/><path class="cls-1" d="M164,130.46q-10.14,0-16.45-6.39t-6.31-17v-1.32A28.51,28.51,0,0,1,144,93a20.86,20.86,0,0,1,7.71-8.72,20.38,20.38,0,0,1,11.07-3.12q9.72,0,15,6.19t5.3,17.54v4.3H152a14.28,14.28,0,0,0,3.93,9.32,11.83,11.83,0,0,0,8.68,3.43A14.44,14.44,0,0,0,176.56,116l5.76,5.5a19.27,19.27,0,0,1-7.62,6.61A23.86,23.86,0,0,1,164,130.46Zm-1.27-40.74a9,9,0,0,0-7.1,3.08,16,16,0,0,0-3.45,8.57h20.35v-.79c-.23-3.58-1.19-6.28-2.86-8.11A8.92,8.92,0,0,0,162.72,89.72Z" transform="translate(-32.69 -57.51)"/><path class="cls-1" d="M206.8,109.19l-4.75,4.88v15.51H191.37V62.08h10.68V101l3.34-4.18L218.53,82h12.83L213.7,101.85l19.55,27.73H220.9Z" transform="translate(-32.69 -57.51)"/><path class="cls-1" d="M274.9,110.69a7,7,0,0,0-2.66-5.86q-2.67-2.1-9.35-4.35A90.08,90.08,0,0,1,252,96.14q-13.81-6.8-13.82-18.66a16.74,16.74,0,0,1,3.44-10.42,22.24,22.24,0,0,1,9.74-7,37.84,37.84,0,0,1,14.16-2.52,33.06,33.06,0,0,1,13.75,2.74A21.78,21.78,0,0,1,288.67,68,20.34,20.34,0,0,1,292,79.58H275a8.63,8.63,0,0,0-2.66-6.74,10.42,10.42,0,0,0-7.21-2.39,11.71,11.71,0,0,0-7.25,2,6.23,6.23,0,0,0-2.66,5.15q0,2.73,2.93,5t10.3,4.59a62.43,62.43,0,0,1,12.11,5.1Q292,98.92,292,110.59q0,9.33-7,14.65t-19.29,5.32a38.22,38.22,0,0,1-15.65-3.1,23.62,23.62,0,0,1-10.55-8.5A22.12,22.12,0,0,1,236,106.54h17.19q0,5.7,3,8.42t9.6,2.71a11,11,0,0,0,6.71-1.83A6,6,0,0,0,274.9,110.69Z" transform="translate(-32.69 -57.51)"/><path class="cls-1" d="M319.23,63.62V76.75h8.7V88.18h-8.7v24.17c0,2,.36,3.37,1.08,4.15s2.13,1.17,4.25,1.17a24.81,24.81,0,0,0,4.1-.29v11.76a30.21,30.21,0,0,1-9.28,1.42q-8.49,0-12.55-4t-4.05-12.16V88.18H296V76.75h6.74V63.62Z" transform="translate(-32.69 -57.51)"/><path class="cls-1" d="M330.85,102.68a31.22,31.22,0,0,1,3.08-14.09,22,22,0,0,1,8.84-9.5,26.64,26.64,0,0,1,13.52-3.32q11.86,0,18.71,7.35t6.83,20v.58q0,12.36-6.86,19.61t-18.58,7.25q-11.28,0-18.11-6.76t-7.38-18.34Zm16.46,1q0,7.33,2.29,10.75a7.67,7.67,0,0,0,6.79,3.41q8.79,0,9-13.52v-1.66q0-14.21-9.09-14.21-8.25,0-8.93,12.26Z" transform="translate(-32.69 -57.51)"/><path class="cls-1" d="M421,91.64l-5.42-.39q-7.75,0-10,4.89v33.44H389.21V76.75h15.42l.54,6.79q4.15-7.77,11.57-7.77a16,16,0,0,1,4.59.59Z" transform="translate(-32.69 -57.51)"/><path class="cls-1" d="M451.61,130.56q-12.17,0-19.68-7.25t-7.52-18.87v-1.37a32.52,32.52,0,0,1,3-14.31,22,22,0,0,1,8.77-9.59,26.48,26.48,0,0,1,13.67-3.4q11.13,0,17.58,6.91T473.87,102v6.39H441.16a11.86,11.86,0,0,0,3.86,7,11.46,11.46,0,0,0,7.71,2.53q7.81,0,12.21-5.46l7.52,8.88a21,21,0,0,1-8.72,6.76A29.38,29.38,0,0,1,451.61,130.56Zm-1.86-42.09q-7.23,0-8.59,9.57h16.6V96.77a8.17,8.17,0,0,0-2-6.13A8,8,0,0,0,449.75,88.47Z" transform="translate(-32.69 -57.51)"/><path class="cls-1" d="M651.5,86.64c5.26.78,7.7,6.54,7.7,6.54,7.7,24.83,9.7,25.38,19.39,36.51s39.07,14.25,59,5.41,22.25-47.62,22.25-47.62l5.13-5.7V64.38c-16.88-5.33-67.82-6-101.24,3.42a117.52,117.52,0,0,1-24.52,0C604.52,58,554.05,59.31,538,64.38V81.77l5.13,5.71s2.28,38.78,22.25,47.62,49.33,5.71,59-5.41S636.1,118,643.8,93.18C643.8,93.18,646.24,87.42,651.5,86.64Zm76.14,45.61c-20,4.85-41.06,2-49.62-13.69s-10.55-32.22-4.28-38.21c0,0,6.56-8.27,24.53-9.41s44.77-4,50.48,12S747.6,127.4,727.64,132.25ZM554.26,82.92c5.7-16,32.51-13.12,50.47-12s24.53,9.41,24.53,9.41c6.27,6,4.27,22.53-4.28,38.21s-29.66,18.54-49.62,13.69S548.55,98.89,554.26,82.92Z" transform="translate(-32.69 -57.51)"/><path class="cls-1" d="M551.19,20.71h14a0,0,0,0,1,0,0V32.4a7,7,0,0,1-7,7h0a7,7,0,0,1-7-7V20.71a0,0,0,0,1,0,0Z"/><path class="cls-1" d="M583.87,106.29h14a0,0,0,0,1,0,0V118a7,7,0,0,1-7,7h0a7,7,0,0,1-7-7v-11.7a0,0,0,0,1,0,0Z" transform="translate(1149.09 173.78) rotate(-180)"/><path class="cls-1" d="M597.91,92.25h14a0,0,0,0,1,0,0v11.7a7,7,0,0,1-7,7h0a7,7,0,0,1-7-7V92.25A0,0,0,0,1,597.91,92.25Z" transform="translate(673.85 -560.83) rotate(90)"/><path class="cls-1" d="M569.84,92.25h14a0,0,0,0,1,0,0v11.7a7,7,0,0,1-7,7h0a7,7,0,0,1-7-7V92.25a0,0,0,0,1,0,0Z" transform="translate(442.56 620.95) rotate(-90)"/><rect class="cls-1" x="674.31" y="21.71" width="15" height="15" rx="7.5"/><rect class="cls-1" x="674.31" y="52.71" width="15" height="15" rx="7.5"/><rect class="cls-1" x="722.5" y="94.72" width="15" height="15" rx="7.5" transform="translate(799.53 -685.29) rotate(90)"/><rect class="cls-1" x="691.5" y="94.72" width="15" height="15" rx="7.5" transform="translate(768.53 -654.29) rotate(90)"/></svg>